<svg width="1200" height="960" viewBox="0 0 1200 960" fill="none" xmlns="http://www.w3.org/2000/svg">
  <defs>
    <linearGradient id="bg" x1="96" y1="40" x2="1100" y2="920" gradientUnits="userSpaceOnUse">
      <stop stop-color="#13352B"/>
      <stop offset="1" stop-color="#061511"/>
    </linearGradient>
    <linearGradient id="panel" x1="112" y1="140" x2="920" y2="820" gradientUnits="userSpaceOnUse">
      <stop stop-color="#F3FFF9"/>
      <stop offset="1" stop-color="#D9F8EE"/>
    </linearGradient>
    <linearGradient id="accent" x1="270" y1="300" x2="770" y2="730" gradientUnits="userSpaceOnUse">
      <stop stop-color="#20D39B"/>
      <stop offset="1" stop-color="#13B9D2"/>
    </linearGradient>
  </defs>
  <rect width="1200" height="960" rx="48" fill="url(#bg)"/>
  <circle cx="1000" cy="130" r="120" fill="#20D39B" fill-opacity="0.14"/>
  <circle cx="180" cy="140" r="90" fill="#13B9D2" fill-opacity="0.14"/>
  <rect x="92" y="106" width="730" height="486" rx="34" fill="url(#panel)"/>
  <rect x="132" y="150" width="648" height="72" rx="22" fill="#E5F8F1"/>
  <rect x="162" y="176" width="144" height="20" rx="10" fill="#20D39B" fill-opacity="0.28"/>
  <rect x="132" y="254" width="300" height="284" rx="28" fill="#0D221B"/>
  <path d="M180 470C238 408 274 398 326 406C373 414 403 438 432 382" stroke="url(#accent)" stroke-width="18" stroke-linecap="round"/>
  <circle cx="188" cy="462" r="14" fill="#20D39B"/>
  <circle cx="320" cy="404" r="14" fill="#20D39B"/>
  <circle cx="430" cy="382" r="14" fill="#13B9D2"/>
  <rect x="468" y="254" width="268" height="128" rx="28" fill="#F6FFFB"/>
  <rect x="498" y="290" width="168" height="22" rx="11" fill="#CDEFE3"/>
  <rect x="498" y="326" width="204" height="16" rx="8" fill="#E5F8F1"/>
  <rect x="468" y="410" width="268" height="128" rx="28" fill="#F6FFFB"/>
  <rect x="498" y="446" width="136" height="22" rx="11" fill="#CDEFE3"/>
  <rect x="498" y="482" width="176" height="16" rx="8" fill="#E5F8F1"/>
  <rect x="852" y="174" width="264" height="198" rx="36" fill="#0C2019"/>
  <path d="M988 240C988 216 1008 196 1032 196H1040C1064 196 1084 216 1084 240V274C1084 306 1058 332 1026 332C994 332 968 306 968 274V240H988Z" fill="url(#accent)"/>
  <rect x="938" y="350" width="92" height="28" rx="14" fill="#13B9D2"/>
  <rect x="1044" y="350" width="92" height="28" rx="14" fill="#20D39B"/>
  <rect x="816" y="442" width="308" height="218" rx="38" fill="#F4FFF9"/>
  <rect x="852" y="486" width="236" height="18" rx="9" fill="#D2F3E8"/>
  <rect x="852" y="524" width="188" height="16" rx="8" fill="#E6F8F1"/>
  <rect x="852" y="580" width="160" height="54" rx="20" fill="url(#accent)"/>
  <path d="M154 706C266 650 382 644 500 696C617 747 715 756 804 698C900 635 974 622 1060 650" stroke="#20D39B" stroke-opacity="0.35" stroke-width="18" stroke-linecap="round"/>
  <circle cx="250" cy="712" r="24" fill="#20D39B"/>
  <circle cx="642" cy="726" r="24" fill="#13B9D2"/>
  <circle cx="998" cy="690" r="24" fill="#20D39B"/>
</svg>
