<svg width="1200" height="960" viewBox="0 0 1200 960" fill="none" xmlns="http://www.w3.org/2000/svg">
  <defs>
    <linearGradient id="opbg" x1="120" y1="70" x2="1060" y2="886" gradientUnits="userSpaceOnUse">
      <stop stop-color="#0E261F"/>
      <stop offset="1" stop-color="#061511"/>
    </linearGradient>
    <linearGradient id="opaccent" x1="300" y1="250" x2="860" y2="760" gradientUnits="userSpaceOnUse">
      <stop stop-color="#20D39B"/>
      <stop offset="1" stop-color="#13B9D2"/>
    </linearGradient>
  </defs>
  <rect width="1200" height="960" rx="48" fill="url(#opbg)"/>
  <rect x="120" y="118" width="268" height="560" rx="40" fill="#F5FFF9"/>
  <rect x="162" y="188" width="184" height="30" rx="15" fill="#D8F5EA"/>
  <rect x="162" y="242" width="132" height="22" rx="11" fill="#E8F9F2"/>
  <rect x="162" y="306" width="184" height="262" rx="28" fill="#0B2019"/>
  <circle cx="622" cy="292" r="78" fill="#20D39B" fill-opacity="0.18"/>
  <circle cx="622" cy="292" r="44" fill="#20D39B"/>
  <circle cx="622" cy="292" r="18" fill="#F5FFF9"/>
  <circle cx="622" cy="292" r="126" stroke="#20D39B" stroke-opacity="0.26" stroke-width="10" stroke-dasharray="16 20"/>
  <path d="M390 398H516C558 398 592 432 592 474V474C592 516 626 550 668 550H814" stroke="url(#opaccent)" stroke-width="18" stroke-linecap="round"/>
  <path d="M390 504H470C512 504 546 538 546 580V580C546 622 580 656 622 656H814" stroke="#20D39B" stroke-opacity="0.55" stroke-width="18" stroke-linecap="round"/>
  <rect x="808" y="170" width="270" height="176" rx="34" fill="#F5FFF9"/>
  <rect x="842" y="214" width="154" height="22" rx="11" fill="#D5F5EA"/>
  <rect x="842" y="252" width="198" height="16" rx="8" fill="#E8F9F2"/>
  <rect x="808" y="430" width="270" height="176" rx="34" fill="#F5FFF9"/>
  <rect x="842" y="474" width="166" height="22" rx="11" fill="#D5F5EA"/>
  <rect x="842" y="512" width="188" height="16" rx="8" fill="#E8F9F2"/>
  <rect x="808" y="690" width="270" height="116" rx="34" fill="url(#opaccent)"/>
  <rect x="230" y="734" width="354" height="104" rx="30" fill="#0C2019"/>
  <rect x="274" y="774" width="126" height="20" rx="10" fill="#20D39B"/>
  <rect x="274" y="808" width="178" height="14" rx="7" fill="#1D3F34"/>
</svg>
